<?xml version="1.0" standalone="no"?>
<!DOCTYPE svg PUBLIC "-//W3C//DTD SVG 20010904//EN"
 "http://www.w3.org/TR/2001/REC-SVG-20010904/DTD/svg10.dtd">
<svg version="1.0" xmlns="http://www.w3.org/2000/svg"
 width="1024.000000pt" height="1024.000000pt" viewBox="0 0 1024.000000 1024.000000"
 preserveAspectRatio="xMidYMid meet">
<metadata>
Created by potrace 1.16, written by Peter Selinger 2001-2019
</metadata>
<g transform="translate(0.000000,1024.000000) scale(0.100000,-0.100000)"
fill="#000000" stroke="none">
<path d="M0 5120 l0 -5120 5120 0 5120 0 0 5120 0 5120 -5120 0 -5120 0 0
-5120z m7302 2798 c9 -8 18 -35 21 -63 3 -27 10 -51 16 -53 6 -2 12 -18 12
-35 1 -18 3 -24 6 -14 7 26 20 21 45 -18 23 -35 38 -44 38 -23 0 6 3 9 6 6 3
-4 0 -17 -7 -30 -10 -20 -10 -21 2 -11 12 9 14 4 16 -30 2 -22 -2 -46 -8 -53
-6 -8 -8 -21 -4 -31 5 -10 10 -38 12 -63 2 -24 9 -47 15 -51 9 -6 9 -14 -1
-33 -11 -19 -11 -29 -3 -39 7 -8 9 -17 5 -20 -3 -4 -1 -7 5 -7 15 0 16 -27 1
-32 -17 -6 -20 -107 -4 -146 19 -43 19 -52 0 -52 -23 0 -18 -16 13 -42 37 -30
61 -101 42 -123 -9 -10 -22 -14 -36 -11 -13 4 -26 1 -29 -4 -4 -6 -11 -8 -16
-5 -10 7 -11 3 -3 -18 3 -9 13 -13 25 -10 10 3 19 0 19 -6 0 -18 -40 -52 -52
-45 -7 5 -9 -3 -6 -25 2 -17 1 -31 -4 -31 -13 0 -9 -17 9 -35 18 -18 38 -118
24 -123 -4 -1 -6 -13 -4 -27 3 -13 -3 -47 -12 -75 -13 -41 -15 -54 -5 -60 9
-6 9 -9 0 -15 -8 -5 -5 -11 9 -21 23 -16 18 -44 -8 -44 -12 0 -11 -4 7 -18 24
-19 20 -32 -10 -32 -10 0 -23 -11 -28 -24 -13 -35 -27 -40 -41 -14 -12 21 -12
22 -19 3 -11 -32 -21 -113 -10 -90 7 17 9 15 9 -13 1 -20 -3 -31 -9 -27 -6 4
-10 -17 -10 -54 0 -34 4 -61 10 -61 6 0 10 -5 10 -11 0 -5 -4 -7 -10 -4 -5 3
-10 -1 -10 -9 0 -18 27 -25 58 -14 18 6 22 4 22 -12 0 -11 -7 -20 -15 -20 -8
0 -15 -9 -15 -20 0 -11 7 -23 15 -26 19 -8 19 -28 -1 -48 -26 -27 -34 -18 -35
42 l-2 57 -10 -79 c-8 -64 -7 -80 4 -87 10 -6 11 -11 3 -16 -17 -12 -26 -61
-13 -65 9 -3 9 -9 0 -26 -6 -12 -9 -38 -5 -59 5 -34 9 -39 32 -38 20 0 27 -5
27 -20 0 -15 -7 -20 -27 -20 -16 1 -28 -4 -28 -10 0 -5 -4 -4 -9 3 -5 8 -11
-46 -15 -133 -4 -81 -5 -149 -2 -152 3 -4 6 8 6 25 0 17 7 37 15 45 7 8 17 27
21 41 6 26 7 26 25 10 11 -9 19 -30 19 -46 0 -28 -9 -37 -47 -42 -16 -3 -18
-12 -16 -71 1 -38 -2 -63 -7 -56 -12 21 -22 -5 -28 -71 -4 -53 -2 -58 16 -58
28 0 35 -15 21 -39 -12 -19 -13 -18 -30 3 -23 28 -32 16 -32 -41 0 -28 -3 -39
-7 -28 -5 16 -8 13 -13 -13 -4 -18 -7 -35 -7 -40 -1 -4 -7 -16 -14 -27 -7 -11
-31 -72 -54 -135 -120 -329 -308 -626 -552 -871 -248 -249 -519 -417 -865
-535 -166 -56 -545 -116 -545 -85 0 4 44 11 98 15 102 7 182 23 322 63 47 13
116 33 154 44 37 11 75 26 83 34 8 8 21 15 29 15 8 0 14 5 14 11 0 5 5 7 10 4
6 -3 13 0 16 8 3 8 23 20 45 27 21 7 39 17 39 22 0 4 11 8 24 8 13 0 26 6 29
14 3 8 18 20 34 29 67 35 85 46 149 93 37 27 94 76 127 109 77 79 207 232 207
245 0 5 25 40 55 77 30 38 57 83 61 101 3 18 10 35 15 38 5 3 9 13 9 23 0 10
10 25 22 33 16 11 21 24 20 51 -1 20 3 39 8 42 6 3 10 16 10 27 0 12 7 29 16
39 8 9 16 24 18 32 1 8 8 22 15 30 7 9 14 26 15 39 6 44 18 83 30 93 16 13 40
74 33 81 -3 3 1 27 9 52 7 26 14 62 14 80 0 17 4 32 9 32 12 0 35 114 29 145
-3 14 1 44 9 67 15 43 16 68 14 268 l-2 125 -62 63 c-34 34 -70 65 -81 68 -11
4 -29 15 -40 25 -11 11 -25 19 -32 19 -17 0 -84 64 -84 81 -1 10 -3 9 -11 -3
-17 -29 -28 -20 -31 25 -2 26 -10 -14 -21 -108 -9 -82 -22 -175 -27 -205 -6
-30 -13 -80 -16 -110 -9 -87 -13 -99 -97 -328 -36 -96 -153 -309 -164 -298 -3
3 11 31 30 63 107 176 182 400 208 617 14 117 13 1370 -1 1374 -6 2 -10 11
-10 19 0 12 -3 13 -15 3 -17 -14 -75 -20 -75 -8 0 4 -9 3 -20 -4 -19 -12 -20
-26 -22 -418 l-3 -405 -322 -3 -322 -2 -3 362 c-2 200 -1 466 2 591 l5 228 55
31 c114 64 290 158 294 158 3 0 28 14 57 30 91 54 200 110 215 110 7 0 22 -19
33 -42 11 -24 20 -35 21 -25 0 10 4 15 10 12 5 -3 15 3 22 15 7 11 22 20 34
20 17 0 23 8 28 35 4 20 4 40 0 47 -4 7 -3 8 4 4 7 -4 12 -1 12 9 0 9 16 32
35 51 20 19 33 39 30 45 -4 5 3 9 13 9 22 0 46 23 35 33 -3 4 -1 7 5 7 6 0 25
12 41 28 16 15 40 37 53 49 13 11 55 35 93 52 39 18 83 38 98 46 16 8 35 15
43 15 8 0 14 4 14 9 0 9 39 22 75 25 11 1 31 6 45 10 20 6 22 5 10 -4 -12 -9
-10 -10 10 -5 14 4 35 8 47 8 12 1 25 5 29 10 11 11 28 9 46 -5z m-4284 -12
c19 -10 39 -12 62 -7 55 11 175 -17 200 -48 3 -3 21 -14 40 -24 74 -39 97 -54
160 -105 36 -28 71 -52 78 -52 7 0 10 -4 7 -10 -3 -5 -2 -10 4 -10 5 0 25 -13
43 -30 18 -16 29 -30 26 -30 -4 0 4 -12 17 -26 13 -14 23 -29 22 -33 -5 -17
25 -73 42 -78 11 -3 22 -17 26 -31 5 -19 9 -22 15 -13 6 11 11 8 20 -9 12 -23
13 -22 32 18 10 23 24 42 32 42 7 0 50 -21 97 -46 46 -26 168 -92 270 -148
102 -55 197 -108 210 -117 l24 -16 0 -794 c0 -793 0 -794 22 -869 13 -41 39
-109 60 -150 81 -165 282 -314 466 -345 l37 -6 -2 -157 c-2 -155 -2 -155 -5
-32 -4 170 -2 164 -70 179 -80 18 -248 93 -236 105 4 4 0 4 -10 0 -12 -4 -17
-1 -17 10 0 9 -10 21 -22 26 -32 13 -58 35 -58 49 0 7 -4 10 -8 7 -4 -2 -18
11 -31 30 -18 26 -26 31 -32 22 -7 -10 -9 -9 -9 3 0 9 -7 22 -15 29 -17 14
-20 3 -5 -20 5 -9 5 -19 -1 -26 -6 -8 -5 -16 3 -25 18 -19 16 -34 -7 -61 -17
-20 -20 -21 -23 -5 -5 25 -13 22 -57 -23 -30 -29 -48 -39 -72 -40 -18 0 -33
-4 -33 -10 0 -5 -6 -10 -14 -10 -7 0 -40 -13 -72 -30 -34 -17 -75 -30 -96 -30
-47 0 -48 -9 -12 -90 1 -3 5 -15 9 -27 4 -13 11 -20 16 -17 5 3 9 0 9 -6 0
-12 2 -14 51 -72 17 -21 28 -38 24 -38 -4 0 24 -29 61 -65 38 -36 70 -65 72
-65 9 0 30 -28 25 -34 -4 -3 -1 -6 6 -6 7 0 30 -13 50 -28 20 -15 61 -41 91
-57 135 -71 146 -88 17 -26 -121 58 -226 132 -328 228 -236 225 -356 472 -404
829 -11 87 -15 243 -16 690 0 321 -5 570 -9 559 -8 -18 -9 -18 -10 5 l-2 25
-8 -25 c-4 -14 -8 -20 -9 -14 -1 15 -34 12 -44 -3 -4 -7 -17 -13 -27 -13 -15
0 -20 7 -22 28 0 15 -4 -4 -8 -43 -12 -116 -11 -1207 1 -1288 59 -396 251
-750 533 -986 101 -84 169 -129 311 -204 61 -32 99 -55 85 -51 -68 18 -287
146 -395 231 -84 67 -207 193 -242 248 -14 22 -38 56 -53 75 -65 83 -129 211
-179 360 -12 36 -28 76 -35 90 -8 14 -22 61 -31 105 -19 90 -18 85 -41 216 -8
53 -19 101 -23 107 -9 14 -82 -5 -94 -25 -4 -7 -16 -13 -27 -13 -10 0 -22 -9
-25 -20 -3 -11 -14 -20 -23 -20 -10 0 -26 -17 -37 -37 -11 -21 -26 -44 -32
-51 -7 -7 -14 -21 -14 -30 -1 -9 -3 -28 -4 -42 -16 -134 -17 -206 -5 -255 7
-30 17 -55 21 -55 4 0 5 -9 2 -21 -3 -11 -1 -30 5 -42 6 -12 13 -33 15 -47 18
-88 38 -164 45 -174 5 -6 15 -36 23 -66 7 -30 20 -71 29 -90 10 -19 20 -48 24
-64 5 -20 10 -26 15 -17 5 8 10 -5 14 -33 4 -25 11 -54 16 -63 5 -10 15 -39
23 -65 7 -27 16 -48 20 -48 4 0 8 -9 8 -20 0 -11 7 -23 15 -27 9 -3 15 -13 13
-22 -3 -19 23 -59 72 -110 20 -20 51 -58 69 -84 18 -27 39 -51 47 -54 8 -3 14
-11 14 -19 0 -8 4 -14 8 -14 5 0 15 -11 22 -25 7 -14 19 -25 27 -25 7 0 13 -7
13 -15 0 -8 18 -33 40 -55 22 -22 40 -43 40 -46 0 -13 46 -54 60 -54 8 0 35
-21 60 -45 25 -25 50 -45 57 -45 7 0 21 -8 31 -17 57 -55 113 -98 162 -124 30
-16 84 -47 120 -69 36 -22 71 -40 78 -40 7 0 20 -4 30 -9 42 -21 94 -41 107
-41 8 0 15 -5 15 -11 0 -6 7 -8 16 -5 8 3 12 2 9 -4 -3 -6 3 -10 14 -10 12 0
21 -3 21 -7 0 -5 10 -8 23 -9 12 0 56 -8 97 -17 41 -10 92 -17 113 -17 20 0
37 -5 37 -11 0 -7 -18 -9 -52 -5 -29 2 -82 8 -118 12 -133 13 -360 70 -499
126 -289 114 -522 272 -781 529 -52 52 -98 93 -102 92 -4 -2 -5 3 -2 10 2 7
-15 34 -38 60 -50 55 -76 89 -127 174 -21 35 -41 60 -45 56 -4 -4 -4 0 0 10 3
10 1 17 -5 17 -6 0 -11 7 -11 16 0 8 -4 12 -10 9 -6 -4 -7 1 -3 11 5 13 3 15
-8 9 -8 -4 -11 -5 -7 0 9 9 -81 185 -94 185 -4 0 -7 3 -6 8 4 17 -15 61 -24
56 -6 -4 -8 2 -3 15 4 14 -3 40 -19 75 -14 30 -26 60 -26 66 0 5 -8 37 -17 70
-11 42 -19 57 -25 48 -6 -9 -7 -6 -3 9 3 12 -1 48 -9 80 -8 32 -22 103 -31
158 -22 131 -22 133 -24 183 -1 31 -4 41 -13 36 -10 -5 -10 -4 -1 6 8 9 9 20
2 39 -6 14 -8 41 -4 59 3 19 2 39 -4 45 -11 14 -20 397 -8 390 4 -2 7 14 7 37
0 23 -3 39 -7 37 -5 -3 -9 14 -10 36 -1 23 3 44 8 48 6 3 6 47 2 110 l-8 104
-6 -70 c-5 -59 -6 -63 -8 -25 -3 38 -4 41 -11 20 l-7 -25 -10 25 c-9 20 -7 28
8 43 26 25 20 70 -10 77 -21 5 -21 6 13 39 35 34 46 61 26 61 -6 0 -21 9 -33
21 -14 13 -31 19 -49 16 -28 -4 -37 6 -18 18 6 4 26 8 44 11 27 3 35 0 39 -16
12 -46 22 -14 21 67 l-1 88 7 -70 7 -70 -2 82 c-1 46 -5 86 -9 90 -10 10 -27
-19 -21 -35 3 -7 1 -10 -4 -7 -5 3 -7 37 -5 75 3 46 1 70 -5 70 -6 0 -11 5
-11 10 0 6 7 10 15 10 8 0 15 7 15 15 0 9 -9 15 -22 15 -21 0 -21 1 -3 13 12
9 14 16 7 21 -8 5 -8 15 -2 32 6 14 10 27 10 28 0 2 -13 2 -30 0 -16 -2 -40 1
-52 6 -13 5 -18 9 -13 9 6 1 11 12 11 25 1 18 -2 22 -17 19 -15 -4 -19 1 -20
26 -1 17 -2 37 -3 44 -1 6 9 12 22 11 14 0 22 5 22 15 1 14 3 13 14 -2 13 -16
14 -15 19 10 3 16 0 31 -6 35 -6 4 -8 10 -4 14 4 4 0 15 -9 25 -10 11 -12 19
-5 24 6 3 11 23 11 44 0 28 -5 40 -17 43 -10 3 -25 17 -33 32 -14 26 -13 29 8
46 12 10 22 23 22 29 0 6 3 11 8 11 4 0 8 34 9 77 2 50 8 85 19 101 13 20 14
26 3 33 -12 8 -11 12 2 22 8 6 18 20 22 30 4 11 15 21 26 24 23 6 41 80 41
168 0 41 4 65 13 68 22 10 48 7 75 -7z m3409 -2303 c-9 -255 -59 -450 -165
-649 -50 -94 -112 -187 -112 -167 0 6 9 21 19 35 30 37 105 185 130 255 16 46
19 68 12 80 -9 16 -10 16 -11 -4 0 -21 -10 -28 -32 -24 -5 0 -8 -7 -8 -16 0
-15 -2 -15 -9 -4 -11 16 -42 7 -39 -11 2 -9 -14 -13 -57 -13 -46 0 -60 3 -60
15 0 8 -9 16 -20 18 -20 3 -66 23 -75 32 -9 10 -55 37 -60 36 -3 -1 -17 6 -30
15 -14 9 -37 18 -51 21 l-26 5 -1 -136 c-1 -75 -5 -236 -8 -358 -5 -163 -4
-226 5 -237 9 -11 8 -15 -4 -20 -13 -5 -15 38 -15 374 l0 379 -472 3 -473 3
-48 24 c-114 56 -192 209 -212 413 -4 37 -4 72 0 78 4 7 304 10 917 10 l911 0
-6 -157z m-809 -881 c1 -199 -2 -330 -8 -340 -6 -12 -9 26 -10 122 0 206 -22
252 -88 191 -33 -31 -37 -31 -89 -1 -32 19 -51 23 -87 19 -25 -3 -46 -11 -47
-17 0 -6 -4 -2 -8 9 -6 14 -11 -7 -15 -65 -4 -47 -12 -112 -17 -145 -5 -33 -9
-138 -9 -232 0 -104 -4 -173 -10 -173 -13 0 -18 942 -5 952 6 5 96 7 200 5
l190 -2 3 -323z"/>
</g>
</svg>
